<?xml version="1.0" encoding="UTF-8" standalone="no"?>
<svg
   width="515.12891"
   height="498.06223"
   viewBox="36 36 362.20001 338.52667"
   version="1.1"
   id="svg166"
   sodipodi:docname="netoutcomes_favicon_tight.svg"
   inkscape:version="1.2.2 (b0a84865, 2022-12-01)"
   xmlns:inkscape="http://www.inkscape.org/namespaces/inkscape"
   xmlns:sodipodi="http://sodipodi.sourceforge.net/DTD/sodipodi-0.dtd"
   xmlns="http://www.w3.org/2000/svg"
   xmlns:svg="http://www.w3.org/2000/svg">
  <sodipodi:namedview
     id="namedview168"
     pagecolor="#ffffff"
     bordercolor="#000000"
     borderopacity="0.25"
     inkscape:showpageshadow="2"
     inkscape:pageopacity="0.0"
     inkscape:pagecheckerboard="0"
     inkscape:deskcolor="#d1d1d1"
     showgrid="false"
     inkscape:zoom="0.75393143"
     inkscape:cx="328.27919"
     inkscape:cy="258.64421"
     inkscape:window-width="1309"
     inkscape:window-height="712"
     inkscape:window-x="0"
     inkscape:window-y="30"
     inkscape:window-maximized="0"
     inkscape:current-layer="svg166" />
  <title
     id="title132">NetOutcomes favicon</title>
  <desc
     id="desc134">Tightly cropped favicon using the exact badge, mesh, and monogram geometry, with no extra outer space.</desc>
  <defs
     id="defs139">
    <clipPath
       id="badge_clip">
      <rect
         x="36"
         y="36"
         width="360"
         height="348"
         rx="28"
         id="rect136" />
    </clipPath>
  </defs>
  <rect
     id="badge"
     x="37.099998"
     y="31.1"
     width="360"
     height="348"
     rx="28"
     fill="#e6eff2"
     stroke="#9aaab0"
     stroke-width="2.2" />
  <g
     id="mesh"
     clip-path="url(#badge_clip)"
     fill="none"
     stroke="#95a8af"
     stroke-width="6"
     stroke-linecap="round"
     opacity="0.92"
     transform="translate(1.1,-4.9)">
    <path
       id="mesh_up_01"
       d="m -268,395 840,840" />
    <path
       id="mesh_up_02"
       d="m -268,251 840,840" />
    <path
       id="mesh_up_03"
       d="M -268,107 572,947" />
    <path
       id="mesh_up_04"
       d="M -268,-37 572,803" />
    <path
       id="mesh_up_05"
       d="M -268,-181 572,659" />
    <path
       id="mesh_up_06"
       d="M -268,-325 572,515" />
    <path
       id="mesh_up_07"
       d="M -268,-469 572,371" />
    <path
       id="mesh_up_08"
       d="M -268,-613 572,227" />
    <path
       id="mesh_up_09"
       d="M -268,-757 572,83" />
    <path
       id="mesh_up_10"
       d="M -268,-901 572,-61" />
    <path
       id="mesh_down_01"
       d="M -268,83 572,-757" />
    <path
       id="mesh_down_02"
       d="M -268,227 572,-613" />
    <path
       id="mesh_down_03"
       d="M -268,371 572,-469" />
    <path
       id="mesh_down_04"
       d="M -268,515 572,-325" />
    <path
       id="mesh_down_05"
       d="M -268,659 572,-181" />
    <path
       id="mesh_down_06"
       d="M -268,803 572,-37" />
    <path
       id="mesh_down_07"
       d="M -268,947 572,107" />
    <path
       id="mesh_down_08"
       d="M -268,1091 572,251" />
    <path
       id="mesh_down_09"
       d="M -268,1235 572,395" />
    <path
       id="mesh_down_10"
       d="M -268,1379 572,539" />
  </g>
  <g
     id="monogram"
     fill="none"
     stroke-linecap="round"
     stroke-linejoin="round"
     transform="translate(0.05608142,1.0043978)">
    <path
       style="fill:#000000;fill-opacity:0;stroke:#06799f;stroke-width:34;stroke-linecap:square;stroke-linejoin:bevel;stroke-miterlimit:3;stroke-dasharray:none;stroke-opacity:1"
       d="M 134.00779,334.5276 132.98572,107.1538 298.54744,274.4653 298.71449,60.725581"
       id="path163" />
  </g>
</svg>
